<svg viewBox="0 0 77.92 85.98" xmlns="http://www.w3.org/2000/svg"><path d="m38.96 85.98c-17.23-10.25-38.96-25.14-38.96-51.44v-27.77c7.95-3.01 20.23-6.77 38.96-6.77s31.95 4.1 38.96 6.77v27.77c0 26.52-22.57 41.8-38.96 51.44z" fill="#fff"/><path d="m50.68 50.02c0-.59.48-1.5.48-2.32 0-.97-1.19-1.28-2.12-1.41-1.95-.27-2.6-.18-2.6-.61 0-.3.26-.61.62-1.12.52-.75 1.77-1.04 2.44-1.13.88-.12 1.84-.24 3.01-.24 1.3 0 2.41.19 2.91.28 1.19.21 1.38.71 1.38 1.27v.56c0 .56-.46.85-1.3 1.04-.21.05-.5.1-.64.13-.6.13-1.35.25-1.62 1.01-.57 1.64-1.56 2.92-2.29 2.89-.13 0-.28-.11-.28-.34zm1.72-26.38c-.07-.04-.32-.13-.32-.38 0-.29.21-.59.63-1.15.98-1.31 2.32-2.91 2.81-2.91.24 0 .39.16.69.73.18.33.33.89.33 1.42 0 1.74-.6 2.96-1.53 4.34-.46-.44-1.32-1.31-2.6-2.04h-.01zm-28.63 3.24c.44 0 .77-.29 1.43-1.02 1.48-1.64 2.91-1.86 2.91-2.56 0-.31-.2-.62-.41-.94-1.58-2.47-2.25-3.8-3.19-5.59-.34-.65-.78-1.09-1.12-1.09-.55 0-1.12.64-1.46 1.18-.47.77-.94 1.64-.94 2.43 0 1.19.29 3.37.79 4.76.54 1.51 1.31 2.83 1.99 2.83zm17.79 5.7c0-1.02-1.15-2.51-3.14-2.51-1.78 0-3.13 1.34-3.49 2.39.43.82.84 1.69 2.54 2.21.23.07.45.07.45.27 0 .27-.29.41-.89.41-1.93 0-3.08-.79-3.59-1.46-.5.07-1.08.26-1.8.29-.59.02-.86-.37-.86-.9 0-.34.1-.71.3-1.13.11-.23.23-.47.32-.64.3-.59.76-1.89 2.52-2.9.21-.12.74-.44 1.01-.6 1-.59 1.75-.73 2.94-.73h.87c1.42 0 2.15.4 2.78.93 1.27 1.07 1.97 1.66 1.97 2.45 0 .88-.05 1.56-.75 2.49-.61.8-1.49 1.32-2.07 1.32-.16 0-.21-.09-.21-.18 0-.12.13-.18.27-.29.47-.38.68-1.06.83-1.43zm8.56 27.31c-.33.08-.99.24-3.91.24-4.42 0-5.17-1.09-5.17-1.95 0-1.44 6.34-2.45 8.84-2.45s3.45.77 3.45 1.35c0 .68-1.08 2.29-3.21 2.8zm-25.5 12.94c4.6 3.59 9.53 6.77 14.35 9.65.04-4.33-.1-6.89 2.84-9.96 1.19-1.24 2.41-2.51 3.52-3.65.83-.86 1.51-1.51 1.9-1.51.28 0 .41.15.41.52s.17 1.81 1.05 3.51c1.1 2.11 2.71 2.39 3.23 2.51 12.56-9.45 23.06-21.82 23.06-39.43v-25.65c-3.1-1.05-15.82-5.93-36.01-5.93s-32.91 4.88-36.01 5.93v25.65c0 7.74 2.03 14.46 5.37 20.37.33-3.56 2.74-5.25 2.74-8.75 0-2.44-.69-3.99-.69-6.03 0-3.7 4.99-11.31 7.58-14.41.08-.09.24-.31.45-.31.19 0 .33.13.44.3.26.4.38.62.66.62s.39-.16.39-.41c0-.64-.75-1.72-.75-5.92 0-2.94.68-3.56 2.51-5.35.33-.33 1.36-1.31 2.33-1.31 1.08 0 1.62.64 2.29 1.32 1.13 1.15 2.7 3.18 2.96 3.51.07.09.14.17.29.17.52 0 .96-.16 3.23-.16 4.12 0 10.33.65 13.53 1.69 1.64.54 1.99.91 2.42.91.21 0 .23-.14.23-.25 0-.21-.43-.54-.43-.83 0-.19.15-.33.3-.41 2.38-1.28 4.41-2.25 6.27-2.25 1.08 0 1.62.94 2.07 1.86.36.72.74 1.69.74 2.69 0 2.52-.96 4.06-1.73 5.14.37.38.89.95 1.21 1.33.57.67 1.24 1.56 1.24 2.47 0 .4-.19 1.02-.3 1.51-.05.22-.24.66-.63.66-.35 0-.44-.39-.45-.72v-.25c0-.73-.2-1.71-.87-2.4-.78-.79-1.48-1.37-2.38-1.37h-.31c-1.47 0-2.14.64-2.55 1.04-.44.43-.79 1.01-.79 1.78 0 .44.3.97.71 1.78.24.48.85 1.61 1.18 2.19.29.51.66.69 1.08.69 1.03 0 1.92-.14 1.92-.45 0-.08-.05-.16-.19-.16-.06 0-.2.02-.33.02-1.34 0-2.06-1.71-2.73-3.25.51-.5 1.09-1.01 2.14-1.01 1.33 0 2.21.9 2.21 2.06 0 .58-.18 1.06-.28 1.28-.05.11-.08.18-.08.24 0 .18.23.22.6.3.13.03.38.09.53.13.39.11.81.45.99.93.12.31.38 1.04.44 1.21.22.66.58 1.62.58 2.77s-.08 1.53-.4 2.72c-.41 1.52-.59 2.1-.66 2.94.14.26.15.34.22.49.23.48.53 1.37.53 2.33v.79c0 1.53-.61 2.71-1.27 3.6-.51.69-1.25 1.67-1.67 2.21-.27.33-.64.56-1.05.56-.2 0-.43-.07-.66-.12-.26-.06-.8-.2-1.04-.26-.9-.23-1.23-.81-1.52-1.6-.04-.12-.18-.45-.22-.56-.21-.55-.34-.9-.68-.9-.25 0-.5.17-.75.55-.9 1.35-1.38 1.84-2.96 2.23-.55.14-1.67.37-2.3.51-.95.21-2.63.65-3.58.65-.2 0-.41-.01-.63-.04-1.3-.18-2.22-.27-3.83-2.19-2.22-2.65-1.99-3.02-2.12-6.6-.01-.4-.15-.9-.56-.9-.37 0-.53.76-.67 1.83-.16 1.26-.45 2.57-1.07 2.57-.43 0-.73-.07-1.39-.28-.81-.26-2.82-.94-3.87-1.29-1.44-.48-2.82-.85-3.37-2.13-.26-.6-.74-1.72-.99-2.3-.17-.41-.3-.62-.57-.62-.38 0-.47.45-.51.81-.05.41-.15 1.34-.2 1.93-.22 2.49-.71 3.55-1.77 4.94-.48.64-.94 1.29-1.48 1.99-1.11 1.47-1.77 2.96-1.74 5.8v1.73c.1 4.22 1.17 6.3 8.29 11.97v.03z" fill="#00458d"/><path d="m58.08 35.48c.12.31.38 1.04.44 1.21.22.66.58 1.62.58 2.77s-.08 1.53-.4 2.72c-.41 1.52-.59 2.1-.66 2.94-.11-.24-2.28-3.97-2.45-4.28-.17-.3-.3-.6-.3-.95 0-.38.16-.61.63-.9.28-.17.64-.38.88-.5 1.12-.57 1.38-1.28 1.38-2.03 0-.32-.05-.64-.1-.97zm-9.43 5.98c.12.29.22.63.22.88 0 .56-.14.73-.45 1.07-.19.17-.39.34-.58.51-.31.16-.58.37-.77.63-.35.51-.62.82-.62 1.12 0 .09.03.16.1.21-.43-.32-.6-.81-.6-1.25 0-.39.13-.6.13-.97 0-.31-.09-.62-.14-.8-.6-2.01-1.61-4.4-2.24-6.03-.64-1.66-1.13-2.57-1.85-2.57-.4 0-.75.2-1.17.2.57 0 1.46-.53 2.07-1.32.71-.93.75-1.61.75-2.49 0-.37-.16-.7-.45-1.06.91.93 1.49 2.11 2.11 3.41 1.35 2.86 2.52 6 3.5 8.44v.02zm-32.33 19.4c0-.49 0-1.54 0-1.73-.04-2.84.63-4.34 1.74-5.8.53-.71.99-1.36 1.48-1.99 1.05-1.39 1.55-2.45 1.77-4.94.05-.58.15-1.52.2-1.93.04-.36.13-.81.51-.81.27 0 .39.21.57.62.24.58.73 1.7.99 2.3.55 1.27 1.93 1.65 3.37 2.13 1.06.35 3.07 1.03 3.87 1.29.67.22.96.28 1.39.28.62 0 .91-1.31 1.07-2.57.14-1.07.3-1.83.67-1.83.41 0 .55.5.56.9.13 3.58-.1 3.95 2.12 6.6 1.61 1.93 2.53 2.01 3.83 2.19-.48-.14-1.1-.7-1.1-1.87v-1.29c0-.64.08-1.3.4-2.04.15-.35.33-.98.49-1.36.28-.66.15-.82.15-1.28 0-.49-.16-.97-.55-2.14-.2-.6-.47-1.48-.72-2.19-.8-2.24-1.13-2.77-3.81-3.13-.86-.11-4.63-.65-5.41-.76-3.01-.43-5.37-.57-6.6-2.59-1.47-2.41-1.32-5.35-2.73-5.35-.67 0-1.02.75-1.02 1.84 0 1.15.43 3 .43 6.23 0 2.79-.26 3.57-1.89 5.62-.42.53-.99 1.32-1.35 1.77-1.21 1.52-1.75 2.37-1.67 4.15.19 4.58.92 7.95 1.25 9.69h-.01zm30.7 10.77c.1-1.12.6-2.98.6-3.75 0-.38-.13-.52-.41-.52-.39 0-1.07.64-1.9 1.51-1.11 1.15-2.33 2.41-3.52 3.65-2.93 3.07-2.79 5.62-2.84 9.96 3.26-1.97 6.24-3.85 8.45-5.36-.33-1.81-.6-3.1-.38-5.48z" fill="#a6afd2"/></svg>